P3
3 5
255
100
88
69
0
0
0
48
42
33
196
174
136
100
88
69
48
42
33
192
171
133
121
107
84
121
107
84
196
174
136
0
0
0
194
172
134
100
88
69
63
56
43
255
255
238
