P3
3 5
255
255
255
255
0
0
0
255
255
255
255
255
255
255
255
255
255
255
255
241
241
241
228
228
228
228
228
228
255
255
255
0
0
0
242
242
242
255
255
255
86
86
86
255
255
255
