P3
3 5
255
255
255
255
18
52
86
255
0
0
242
113
65
0
0
0
0
255
0
164
18
228
164
18
228
27
177
241
0
0
255
255
0
0
0
255
0
0
0
255
0
0
0
255
0
0
