P3
3 5
255
254
127
0
254
127
254
127
0
254
255
224
234
255
233
255
255
18
255
222
255
234
255
255
255
255
74
255
231
250
255
255
255
255
255
227
255
136
153
43
255
255
202
255
209
202
