P3
# Created by GIMP version 2.10.30 PNM plug-in
3 5
255
85
85
85
0
0
0
85
85
85
85
85
85
85
85
85
85
85
85
148
148
148
136
136
136
136
136
136
85
85
85
0
0
0
140
140
140
85
85
85
52
52
52
255
255
255
