P3
# Created by GIMP version 2.10.30 PNM plug-in
3 5
255
245
0
0
0
0
0
0
0
245
0
245
0
245
0
0
0
0
245
17
167
231
154
8
218
154
8
218
0
245
0
0
0
0
232
103
55
245
0
0
8
42
76
245
245
245
