P3
3 5
255
54
54
54
0
0
0
18
18
18
182
182
182
54
54
54
18
18
18
149
149
149
64
64
64
64
64
64
182
182
182
0
0
0
136
136
136
54
54
54
47
47
47
254
254
254
