P3
# Created by GIMP version 2.10.30 PNM plug-in
3 5
255
130
130
130
0
0
0
70
70
70
220
220
220
130
130
130
70
70
70
164
164
164
102
102
102
102
102
102
220
220
220
0
0
0
153
153
153
130
130
130
50
50
50
255
255
255
