P3
3 5
255
255
255
255
0
0
0
0
0
0
0
0
0
255
255
255
0
0
0
27
27
27
164
164
164
164
164
164
0
0
0
0
0
0
242
242
242
255
255
255
18
18
18
255
255
255
