P3
3 5
255
78
31
0
62
15
46
15
0
94
75
86
44
109
45
103
61
3
136
41
108
88
110
65
134
106
20
124
45
89
49
93
80
90
122
65
94
65
37
10
81
66
56
95
83
81
