P3
3 5
255
127
127
127
0
0
0
127
127
127
127
127
127
127
127
127
127
127
127
222
222
222
205
205
205
205
205
205
127
127
127
0
0
0
210
210
210
127
127
127
78
78
78
255
255
255
