P3
# Created by GIMP version 2.10.30 PNM plug-in
3 5
255
0
0
0
0
0
0
255
255
255
0
0
0
0
0
0
255
255
255
241
241
241
228
228
228
228
228
228
0
0
0
0
0
0
65
65
65
0
0
0
86
86
86
255
255
255
