P3
3 5
255
0
0
0
0
0
0
0
0
0
255
255
255
0
0
0
0
0
0
177
177
177
18
18
18
18
18
18
255
255
255
0
0
0
113
113
113
0
0
0
52
52
52
255
255
255
