P3
3 5
255
255
37
0
83
37
40
0
0
232
123
255
19
255
70
255
81
0
255
0
254
159
239
183
255
230
0
255
2
238
40
247
188
243
255
113
202
155
5
0
161
180
79
245
239
206
