P3
3 5
255
255
10
10
10
10
10
10
10
255
10
255
10
255
10
10
10
10
255
37
187
251
174
28
238
174
28
238
10
255
10
10
10
10
252
123
75
255
10
10
28
62
96
255
255
255
